<mxfile host="Electron" agent="Mozilla/5.0 (Windows NT 10.0; Win64; x64) AppleWebKit/537.36 (KHTML, like Gecko) draw.io/26.0.4 Chrome/128.0.6613.186 Electron/32.2.5 Safari/537.36" version="26.0.4">
  <diagram name="Page-1" id="eo9_WLX4i6MRtV-79SUJ">
    <mxGraphModel dx="2284" dy="836" grid="1" gridSize="10" guides="1" tooltips="1" connect="1" arrows="1" fold="1" page="1" pageScale="1" pageWidth="850" pageHeight="1100" math="0" shadow="0">
      <root>
        <mxCell id="0" />
        <mxCell id="1" parent="0" />
        <mxCell id="xD0bL81C4ZWrOrEym1o9-38" style="rounded=0;orthogonalLoop=1;jettySize=auto;html=1;" parent="1" source="xD0bL81C4ZWrOrEym1o9-39" target="xD0bL81C4ZWrOrEym1o9-42" edge="1">
          <mxGeometry relative="1" as="geometry" />
        </mxCell>
        <mxCell id="xD0bL81C4ZWrOrEym1o9-39" value="Na zastávke" style="ellipse;whiteSpace=wrap;html=1;" parent="1" vertex="1">
          <mxGeometry x="-295" y="660" width="100" height="70" as="geometry" />
        </mxCell>
        <mxCell id="xD0bL81C4ZWrOrEym1o9-40" style="rounded=0;orthogonalLoop=1;jettySize=auto;html=1;" parent="1" source="xD0bL81C4ZWrOrEym1o9-41" target="xD0bL81C4ZWrOrEym1o9-39" edge="1">
          <mxGeometry relative="1" as="geometry" />
        </mxCell>
        <mxCell id="xD0bL81C4ZWrOrEym1o9-41" value="Na ceste" style="ellipse;whiteSpace=wrap;html=1;" parent="1" vertex="1">
          <mxGeometry x="-405" y="560" width="100" height="70" as="geometry" />
        </mxCell>
        <mxCell id="xD0bL81C4ZWrOrEym1o9-42" value="Nakladá&lt;div&gt;cestujúcich&lt;/div&gt;" style="ellipse;whiteSpace=wrap;html=1;" parent="1" vertex="1">
          <mxGeometry x="-515" y="660" width="100" height="70" as="geometry" />
        </mxCell>
        <mxCell id="xD0bL81C4ZWrOrEym1o9-44" value="!Príchod" style="text;html=1;align=center;verticalAlign=middle;resizable=0;points=[];autosize=1;strokeColor=none;fillColor=none;" parent="1" vertex="1">
          <mxGeometry x="-300" y="620" width="70" height="30" as="geometry" />
        </mxCell>
        <mxCell id="xD0bL81C4ZWrOrEym1o9-45" value="" style="endArrow=classic;html=1;rounded=0;endFill=1;" parent="1" source="xD0bL81C4ZWrOrEym1o9-42" target="xD0bL81C4ZWrOrEym1o9-41" edge="1">
          <mxGeometry width="50" height="50" relative="1" as="geometry">
            <mxPoint x="-415" y="915" as="sourcePoint" />
            <mxPoint x="-385" y="930" as="targetPoint" />
          </mxGeometry>
        </mxCell>
        <mxCell id="xD0bL81C4ZWrOrEym1o9-46" value="!Odchod" style="text;html=1;align=center;verticalAlign=middle;resizable=0;points=[];autosize=1;strokeColor=none;fillColor=none;" parent="1" vertex="1">
          <mxGeometry x="-490" y="620" width="70" height="30" as="geometry" />
        </mxCell>
        <mxCell id="xD0bL81C4ZWrOrEym1o9-49" value="!Nastupovanie" style="text;html=1;align=center;verticalAlign=middle;resizable=0;points=[];autosize=1;strokeColor=none;fillColor=none;" parent="1" vertex="1">
          <mxGeometry x="-400" y="700" width="100" height="30" as="geometry" />
        </mxCell>
      </root>
    </mxGraphModel>
  </diagram>
</mxfile>
